<?xml version="1.0" encoding="UTF-8"?>
<svg width="487px" height="70px" viewBox="0 0 487 70" version="1.1" xmlns="http://www.w3.org/2000/svg">
  <title>Codeciting.com</title>
  <g stroke="none" stroke-width="1" fill="none" fill-rule="evenodd">
    <path
        d="M25.1262118,13.834 C25.1808788,13.9433339 25.2082118,14.0389996 25.2082118,14.121 C25.2082118,14.2030004 25.2355449,14.2986661 25.2902118,14.408 C25.3995457,14.6266678 25.3722127,14.8453322 25.2082118,15.064 C25.044211,15.2826678 24.8802127,15.3373339 24.7162118,15.228 C24.1695424,15.1186661 23.6228812,14.9410012 23.0762118,14.695 C22.5295424,14.4489988 21.9828812,14.2166678 21.4362118,13.998 C20.8895424,13.7793322 20.3428812,13.6153339 19.7962118,13.506 C19.2495424,13.3966661 18.7302143,13.4239992 18.2382118,13.588 C17.144873,13.9160016 16.010551,14.4353298 14.8352118,15.146 C13.6598726,15.8566702 12.5118841,16.7449947 11.3912118,17.811 C10.2705396,18.8770053 9.23188329,20.1206596 8.27521184,21.542 C7.31854039,22.9633404 6.51221512,24.5486579 5.85621184,26.298 C5.03620774,28.7033454 4.7902102,30.9583228 5.11821184,33.063 C5.44621348,35.1676772 6.19787263,36.9306596 7.37321184,38.352 C8.54855105,39.7733404 10.0792024,40.7983302 11.9652118,41.427 C13.8512213,42.0556698 15.9968665,42.1240025 18.4022118,41.632 C20.1515539,41.2493314 21.8188706,40.620671 23.4042118,39.746 C24.9895531,38.871329 26.4655383,37.969338 27.8322118,37.04 C27.5588771,37.4773355 27.3128796,37.8599984 27.0942118,38.188 C26.8755441,38.5160016 26.5475474,38.8986645 26.1102118,39.336 C25.8368771,39.6093347 25.5635465,39.978331 25.2902118,40.443 C25.0168771,40.907669 24.7435465,41.2766653 24.4702118,41.55 C22.5568689,43.6273437 20.2335588,45.130662 17.5002118,46.06 C16.8988755,46.2786678 16.3795474,46.4016665 15.9422118,46.429 C15.5048763,46.4563335 14.9855482,46.5246661 14.3842118,46.634 C13.5095408,46.634 12.6348829,46.6613331 11.7602118,46.716 C10.8855408,46.7706669 10.0382159,46.6613347 9.21821184,46.388 C6.81286648,45.5679959 4.76288698,43.9826784 3.06821184,41.632 C2.30287468,40.5933281 1.66054777,39.3223408 1.14121184,37.819 C0.621875908,36.3156591 0.293879188,34.7303417 0.157211838,33.063 C0.0205444878,31.3956583 0.0615440778,29.7420082 0.280211838,28.102 C0.498879598,26.4619918 0.963541618,24.9313404 1.67421184,23.51 C3.15021922,20.3393175 4.91320159,17.4966792 6.96321184,14.982 C9.01322209,12.4673208 11.459531,10.7180049 14.3022118,9.734 C16.2155547,9.02332978 18.5115318,8.96866366 21.1902118,9.57 C21.8462151,9.8433347 22.5842077,10.3899959 23.4042118,11.21 L24.2242118,12.03 C24.4975465,12.3033347 24.7708771,12.6859975 25.0442118,13.178 C25.0988788,13.2873339 25.1125453,13.3966661 25.0852118,13.506 C25.0578784,13.6153339 25.0715449,13.7246661 25.1262118,13.834 Z M52.6873244,22.362 L51.2933244,23.756 C51.73066,23.7013331 52.4003199,23.5783343 53.3023244,23.387 C54.2043289,23.1956657 55.0926534,23.1 55.9673244,23.1 C56.6233277,23.2093339 57.1699889,23.4279984 57.6073244,23.756 C58.04466,24.0840016 58.3179906,24.712662 58.4273244,25.642 C58.6459922,26.9540066 58.9876554,28.27966 59.4523244,29.619 C59.9169934,30.95834 60.2723232,32.2839934 60.5183244,33.596 C60.7643257,34.9080066 60.7506591,36.1516608 60.4773244,37.327 C60.2039897,38.5023392 59.4659971,39.554662 58.2633244,40.484 C57.0059848,42.3973429 55.6256653,43.9963269 54.1223244,45.281 C52.6189836,46.5656731 51.0473326,47.3173322 49.4073244,47.536 C48.3139856,47.7000008 47.111331,47.549669 45.7993244,47.085 C44.4873179,46.620331 43.5306608,45.8140057 42.9293244,44.666 C42.7653236,44.7753339 42.6286583,44.7890004 42.5193244,44.707 C42.4099906,44.6249996 42.3006583,44.5293339 42.1913244,44.42 C42.0819906,44.3106661 41.9863248,44.2833331 41.9043244,44.338 C41.822324,44.3926669 41.7539914,44.3653339 41.6993244,44.256 C41.6446575,44.0919992 41.6173244,43.8733347 41.6173244,43.6 L41.6173244,43.272 C41.6719914,41.3586571 41.8496563,39.4316764 42.1503244,37.491 C42.4509926,35.5503236 42.9156546,33.6643425 43.5443244,31.833 C44.1729942,30.0016575 44.992986,28.2796747 46.0043244,26.667 C47.0156628,25.0543253 48.3139832,23.6193396 49.8993244,22.362 C50.4459938,22.0339984 51.0473212,21.9246661 51.7033244,22.034 L52.1133244,22.034 C52.2773253,22.034 52.4686567,22.1433322 52.6873244,22.362 Z M49.8993244,27.938 C49.5713228,27.8833331 49.3799914,27.7740008 49.3253244,27.61 C49.2706575,27.4459992 49.284324,27.2410012 49.3663244,26.995 C49.4483248,26.7489988 49.5576571,26.4620016 49.6943244,26.134 C49.8309918,25.8059984 49.8993244,25.4780016 49.8993244,25.15 C48.7513187,26.1886719 47.8629942,27.4459926 47.2343244,28.922 C46.6056546,30.3980074 46.1546591,31.9149922 45.8813244,33.473 C45.6079897,35.0310078 45.484991,36.5479926 45.5123244,38.024 C45.5396579,39.5000074 45.6079906,40.7846612 45.7173244,41.878 C45.8266583,42.807338 46.0179897,43.5589971 46.2913244,44.133 C46.5646591,44.7070029 46.974655,45.0486661 47.5213244,45.158 C48.1226608,45.3220008 48.9153195,45.1580025 49.8993244,44.666 C51.3206649,43.9553298 52.4686534,42.9713396 53.3433244,41.714 C54.2179955,40.4566604 54.928655,39.1173404 55.4753244,37.696 C55.6939922,36.9306628 55.8716571,36.0150053 56.0083244,34.949 C56.1449918,33.8829947 56.1039922,32.885338 55.8853244,31.956 C55.6119897,30.6986604 54.9149967,29.7830029 53.7943244,29.209 C52.6736522,28.6349971 51.3753318,28.2113347 49.8993244,27.938 Z M91.154437,0.96 C91.154437,4.45868416 91.4824337,7.72498483 92.138437,10.759 C92.7944403,13.7930152 93.3411015,16.8953175 93.778437,20.066 C94.2157725,23.2913495 94.5164362,26.4756509 94.680437,29.619 C94.8444378,32.7623491 95.0631023,35.6733199 95.336437,38.352 C95.1724362,38.6800016 95.1041036,39.0626645 95.131437,39.5 C95.1587705,39.9373355 95.0357717,40.2926653 94.762437,40.566 C93.9424329,41.3313372 93.0131089,42.0693298 91.974437,42.78 C90.9357652,43.4906702 89.7877766,44.1466637 88.530437,44.748 C88.0931015,44.9666678 87.6557725,45.0623335 87.218437,45.035 C86.7811015,45.0076665 86.3437725,45.0486661 85.906437,45.158 C85.4144346,45.2673339 84.908773,45.4039992 84.389437,45.568 C83.8701011,45.7320008 83.3371064,45.7593339 82.790437,45.65 C82.1891007,45.4859992 81.4784411,45.2263351 80.658437,44.871 C79.8384329,44.5156649 79.0184411,44.0920025 78.198437,43.6 C77.3784329,43.1079975 76.6267738,42.5613363 75.943437,41.96 C75.2601003,41.3586637 74.7544387,40.7026702 74.426437,39.992 C73.8251007,36.8759844 73.9480995,34.0606792 74.795437,31.546 C75.6427746,29.0313208 76.9137619,26.7626768 78.608437,24.74 C78.8271048,24.4666653 79.1004354,24.2616673 79.428437,24.125 C79.7564387,23.9883327 80.0571023,23.8106678 80.330437,23.592 C80.6037717,23.3733322 80.9044354,23.1956674 81.232437,23.059 C81.5604387,22.9223326 81.9431015,22.8813331 82.380437,22.936 C83.4737758,23.0453339 84.6764305,23.304998 85.988437,23.715 C87.3004436,24.1250021 88.3117668,24.3846661 89.022437,24.494 L89.022437,23.264 C89.022437,21.8426596 88.9267713,20.4076739 88.735437,18.959 C88.5441027,17.5103261 88.3664378,16.0480074 88.202437,14.572 C88.0384362,13.0959926 87.9154374,11.5790078 87.833437,10.021 C87.7514366,8.46299221 87.8197693,6.8640082 88.038437,5.224 C88.093104,4.78666448 88.2024362,4.34933552 88.366437,3.912 C88.5304378,3.47466448 88.6671031,3.03733552 88.776437,2.6 C88.8857709,2.3266653 89.0497693,2.01233511 89.268437,1.657 C89.4871048,1.30166489 89.7331023,1.06933388 90.006437,0.96 C90.2797717,0.85066612 90.4437701,0.67300123 90.498437,0.427 C90.553104,0.18099877 90.6897693,0.08533306 90.908437,0.14 C91.1271048,0.19466694 91.2227705,0.27666612 91.195437,0.386 C91.1681036,0.49533388 91.154437,0.6866653 91.154437,0.96 Z M90.662437,39.172 C90.717104,38.5706637 90.7307705,37.7096723 90.703437,36.589 C90.6761036,35.4683277 90.4984387,34.3066727 90.170437,33.104 C89.8424354,31.9013273 89.3094407,30.7533388 88.571437,29.66 C87.8334333,28.5666612 86.8084436,27.7466694 85.496437,27.2 C84.8951007,27.2546669 84.1981077,27.3503326 83.405437,27.487 C82.6127664,27.6236674 81.8337742,27.8559984 81.068437,28.184 C80.3030999,28.5120016 79.5924403,28.9629971 78.936437,29.537 C78.2804337,30.1110029 77.7611056,30.835329 77.378437,31.71 C77.0504354,32.6940049 77.0504354,33.9649922 77.378437,35.523 C77.7064387,37.0810078 78.5810966,38.5706596 80.002437,39.992 C80.8224411,40.4840025 81.697099,40.7709996 82.626437,40.853 C83.555775,40.9350004 84.4987656,40.9213339 85.455437,40.812 C86.4121085,40.7026661 87.3414325,40.4840016 88.243437,40.156 C89.1454415,39.8279984 89.9517668,39.5000016 90.662437,39.172 Z M128.63755,20.804 C129.020218,21.1866686 129.375548,21.610331 129.70355,22.075 C130.031551,22.539669 130.304882,23.0179975 130.52355,23.51 C130.960885,24.5486719 131.193216,25.5736616 131.22055,26.585 C131.247883,27.5963384 130.851554,28.8126596 130.03155,30.234 C129.102212,31.7646743 127.913224,33.0493281 126.46455,34.088 C125.015876,35.1266719 123.444225,35.7826653 121.74955,36.056 C120.546877,36.2746678 119.344222,36.2610012 118.14155,36.015 C116.938877,35.7689988 115.790888,35.2360041 114.69755,34.416 C114.369548,34.6893347 114.109884,35.0856641 113.91855,35.605 C113.727215,36.1243359 113.658883,36.6026645 113.71355,37.04 C113.822884,37.8053372 114.109881,38.6389955 114.57455,39.541 C115.039219,40.4430045 115.54488,41.0579984 116.09155,41.386 C117.020888,41.7686686 118.319208,41.7960016 119.98655,41.468 C121.653891,41.1399984 123.43054,40.6343367 125.31655,39.951 C127.202559,39.2676632 129.061207,38.5023376 130.89255,37.655 C132.723892,36.8076624 134.295543,36.0833363 135.60755,35.482 C135.60755,35.8100016 135.539217,36.0286661 135.40255,36.138 C135.265882,36.2473339 135.088217,36.4386653 134.86955,36.712 C134.596215,36.9853347 134.295551,37.3133314 133.96755,37.696 C133.639548,38.0786686 133.256885,38.4066653 132.81955,38.68 C132.27288,39.0080016 131.862884,39.4316641 131.58955,39.951 C131.316215,40.4703359 130.796887,40.9486645 130.03155,41.386 C128.992878,41.9326694 127.940555,42.4929971 126.87455,43.067 C125.808544,43.6410029 124.756221,44.160331 123.71755,44.625 C122.678878,45.089669 121.626555,45.4449988 120.56055,45.691 C119.494544,45.9370012 118.442221,46.0053339 117.40355,45.896 C116.692879,45.7866661 116.105219,45.5953347 115.64055,45.322 C115.175881,45.0486653 114.615553,44.6386694 113.95955,44.092 C113.631548,43.8186653 113.248885,43.5453347 112.81155,43.272 C112.374214,42.9986653 112.046217,42.7253347 111.82755,42.452 C110.898212,41.0853265 110.269551,39.6230078 109.94155,38.065 C109.613548,36.5069922 109.545215,34.9490078 109.73655,33.391 C109.927884,31.8329922 110.324213,30.3023409 110.92555,28.799 C111.526886,27.2956592 112.319545,25.9153396 113.30355,24.658 C113.850219,23.9473298 114.519879,23.2230037 115.31255,22.485 C116.10522,21.7469963 116.979878,21.0910029 117.93655,20.517 C118.893221,19.9429971 119.904544,19.4920016 120.97055,19.164 C122.036555,18.8359984 123.116211,18.6993331 124.20955,18.754 C124.646885,18.8086669 125.043215,18.9316657 125.39855,19.123 C125.753885,19.3143343 126.150214,19.5193322 126.58755,19.738 C126.860884,19.8473339 127.202548,19.9976657 127.61255,20.189 C128.022552,20.3803343 128.364215,20.5853322 128.63755,20.804 Z M126.25955,25.642 C126.150216,25.1499975 125.849552,24.7126686 125.35755,24.33 C124.865547,23.9473314 124.318886,23.6330012 123.71755,23.387 C123.116213,23.1409988 122.514886,22.9906669 121.91355,22.936 C121.312213,22.8813331 120.874884,22.9086661 120.60155,23.018 C120.164214,23.1820008 119.658552,23.4689979 119.08455,23.879 C118.510547,24.289002 117.963886,24.7673306 117.44455,25.314 C116.925214,25.8606694 116.433219,26.4483302 115.96855,27.077 C115.503881,27.7056698 115.162217,28.2933306 114.94355,28.84 C114.834216,29.0040008 114.73855,29.2636649 114.65655,29.619 C114.574549,29.9743351 114.588216,30.2339992 114.69755,30.398 C115.353553,31.2180041 116.337543,31.628 117.64955,31.628 C118.906889,31.628 120.259876,31.3273363 121.70855,30.726 C123.157224,30.1246637 124.182213,29.4960033 124.78355,28.84 C124.838217,28.7306661 124.961215,28.5393347 125.15255,28.266 C125.343884,27.9926653 125.521549,27.6920016 125.68555,27.364 C125.84955,27.0359984 125.999882,26.7080016 126.13655,26.38 C126.273217,26.0519984 126.314217,25.8060008 126.25955,25.642 Z M164.398662,26.052 C164.562663,26.3253347 164.630996,26.5849988 164.603662,26.831 C164.576329,27.0770012 164.535329,27.2819992 164.480662,27.446 C164.043327,27.9380025 163.687997,28.2659992 163.414662,28.43 C163.141328,28.5940008 162.676665,28.8399984 162.020662,29.168 C161.856661,29.2773339 161.70633,29.3866661 161.569662,29.496 C161.432995,29.6053339 161.282663,29.66 161.118662,29.66 C160.845328,29.66 160.421665,29.4413355 159.847662,29.004 C159.273659,28.5666645 158.658665,28.1293355 158.002662,27.692 C157.346659,27.2546645 156.649666,26.9266678 155.911662,26.708 C155.173659,26.4893322 154.503999,26.5713314 153.902662,26.954 C153.301326,27.7740041 152.727332,28.8263269 152.180662,30.111 C151.633993,31.3956731 151.21033,32.7486596 150.909662,34.17 C150.608994,35.5913404 150.513328,37.0399926 150.622662,38.516 C150.731996,39.9920074 151.169325,41.3586604 151.934662,42.616 C155.105345,42.9440016 157.92065,42.411007 160.380662,41.017 C162.840675,39.622993 165.109318,37.8873437 167.186662,35.81 C167.186662,36.1926686 167.090997,36.5343318 166.899662,36.835 C166.708328,37.1356682 166.530663,37.4499984 166.366662,37.778 C166.147994,38.2700025 165.915663,38.748331 165.669662,39.213 C165.423661,39.677669 165.081998,40.1286645 164.644662,40.566 C163.879325,41.3860041 163.018334,42.1786628 162.061662,42.944 C161.104991,43.7093372 160.093668,44.3789971 159.027662,44.953 C157.961657,45.5270029 156.868334,45.9643318 155.747662,46.265 C154.62699,46.5656682 153.520001,46.6613339 152.426662,46.552 C151.825326,46.4973331 151.401663,46.3470012 151.155662,46.101 C150.909661,45.8549988 150.485999,45.5953347 149.884662,45.322 C149.556661,45.1033322 149.132998,44.9120008 148.613662,44.748 C148.094326,44.5839992 147.697997,44.3653347 147.424662,44.092 C146.877993,43.4359967 146.467997,42.643338 146.194662,41.714 C145.811994,40.5113273 145.620662,39.1993404 145.620662,37.778 C145.620662,36.3566596 145.716328,34.97634 145.907662,33.637 C146.098997,32.29766 146.372327,31.0813388 146.727662,29.988 C147.082997,28.8946612 147.397328,28.0473363 147.670662,27.446 C147.998664,26.7353298 148.490659,26.1203359 149.146662,25.601 C149.802665,25.0816641 150.526992,24.6033355 151.319662,24.166 C152.112333,23.7286645 152.918658,23.3186686 153.738662,22.936 C154.558666,22.5533314 155.323992,22.1980016 156.034662,21.87 C158.822676,21.87 161.610648,23.2639861 164.398662,26.052 Z M190.893775,19.082 C191.33111,19.5193355 191.508775,19.8746653 191.426775,20.148 C191.344774,20.4213347 191.16711,20.5306669 190.893775,20.476 C190.183105,20.476 189.404112,20.5443327 188.556775,20.681 C187.709437,20.8176673 186.807446,20.9269996 185.850775,21.009 C184.894103,21.0910004 183.896447,21.1046669 182.857775,21.05 C181.819103,20.9953331 180.780447,20.8040016 179.741775,20.476 C179.304439,20.0386645 179.318106,19.6423351 179.782775,19.287 C180.247444,18.9316649 180.61644,18.3986702 180.889775,17.688 C181.053776,17.1959975 181.286107,16.8543343 181.586775,16.663 C181.887443,16.4716657 182.201773,16.3486669 182.529775,16.294 C183.131111,16.294 183.88277,16.4169988 184.784775,16.663 C185.686779,16.9090012 186.438438,17.0593331 187.039775,17.114 C187.969113,17.2233339 188.734438,17.3736657 189.335775,17.565 C189.937111,17.7563343 190.456439,18.2619959 190.893775,19.082 Z M189.171775,30.234 C189.499776,31.4913396 189.759441,32.6393281 189.950775,33.678 C190.142109,34.7166719 190.278774,35.7143286 190.360775,36.671 C190.442775,37.6276714 190.497441,38.5979951 190.524775,39.582 C190.552108,40.5660049 190.565775,41.6319943 190.565775,42.78 C190.565775,42.9986678 190.442776,43.2309988 190.196775,43.477 C189.950774,43.7230012 189.773109,43.9826653 189.663775,44.256 C189.445107,44.7480025 189.267442,45.0486661 189.130775,45.158 C188.994107,45.2673339 188.761776,45.4039992 188.433775,45.568 C187.668438,45.8960016 186.985111,46.3606637 186.383775,46.962 C185.673105,45.9233281 185.194776,44.7206735 184.948775,43.354 C184.702774,41.9873265 184.538775,40.5660074 184.456775,39.09 C184.374774,37.6139926 184.292775,36.1243409 184.210775,34.621 C184.128774,33.1176592 183.923776,31.6553404 183.595775,30.234 C183.431774,29.4686628 183.48644,28.9493347 183.759775,28.676 C184.03311,28.4026653 184.333773,28.2113339 184.661775,28.102 C185.044443,27.9926661 185.468106,28.0746653 185.932775,28.348 C186.397444,28.6213347 186.848439,28.8946653 187.285775,29.168 C187.668443,29.3866678 188.03744,29.5096665 188.392775,29.537 C188.74811,29.5643335 189.007774,29.7966645 189.171775,30.234 Z M236.166887,27.938 C236.276221,28.0473339 236.35822,28.102 236.412887,28.102 C236.467554,28.102 236.494887,28.1566661 236.494887,28.266 C236.44022,28.3753339 236.317222,28.4983327 236.125887,28.635 C235.934553,28.7716674 235.59289,28.8673331 235.100887,28.922 C234.936887,28.9766669 234.718222,29.0723326 234.444887,29.209 C234.171553,29.3456673 233.952888,29.4413331 233.788887,29.496 C232.31288,29.8240016 230.577231,30.1246653 228.581887,30.398 C226.586544,30.6713347 224.522898,30.9173322 222.390887,31.136 C222.281554,33.0493429 222.240554,34.8259918 222.267887,36.466 C222.295221,38.1060082 222.363554,39.5273273 222.472887,40.73 C222.582221,41.659338 223.01955,42.1103335 223.784887,42.083 C224.550225,42.0556665 225.342883,41.9053347 226.162887,41.632 C226.381555,41.5773331 226.969216,41.317669 227.925887,40.853 C228.882559,40.388331 230.003214,39.8416698 231.287887,39.213 C232.57256,38.5843302 233.925547,37.9010037 235.346887,37.163 C236.768228,36.4249963 238.052882,35.7553363 239.200887,35.154 C239.200887,35.9193372 238.790892,36.6573298 237.970887,37.368 C237.533552,37.7506686 237.055223,38.1059984 236.535887,38.434 C236.016551,38.7620016 235.483557,39.1173314 234.936887,39.5 C234.335551,39.8826686 233.925555,40.2926645 233.706887,40.73 C233.48822,41.1673355 232.996225,41.6319975 232.230887,42.124 C230.809547,43.053338 229.278896,43.9006628 227.638887,44.666 C225.998879,45.4313372 224.522894,45.9779984 223.210887,46.306 C222.773552,46.4153339 222.322556,46.47 221.857887,46.47 C221.393218,46.47 220.942223,46.5519992 220.504887,46.716 C219.848884,46.9893347 219.343223,46.9346686 218.987887,46.552 C218.632552,46.1693314 218.400221,45.6226702 218.290887,44.912 C218.07222,42.8893232 217.921888,40.7300115 217.839887,38.434 C217.757887,36.1379885 217.74422,33.8146784 217.798887,31.464 C216.158879,31.5733339 214.641894,31.6143335 213.247887,31.587 C211.85388,31.5596665 210.719558,31.4640008 209.844887,31.3 C209.024883,31.1906661 208.273224,31.0130012 207.589887,30.767 C206.906551,30.5209988 206.291557,30.1246694 205.744887,29.578 C205.252885,29.578 205.102553,29.345669 205.293887,28.881 C205.485222,28.416331 205.635554,28.0200016 205.744887,27.692 C206.892893,27.6373331 208.573876,27.5690004 210.787887,27.487 C213.001898,27.4049996 215.393541,27.3093339 217.962887,27.2 C218.181555,22.662644 218.564218,18.4533527 219.110887,14.572 C219.657557,10.6906473 220.31355,7.7933429 221.078887,5.88 C221.078887,5.38799754 221.283885,5.04633429 221.693887,4.855 C222.103889,4.66366571 222.527552,4.4313347 222.964887,4.158 C223.183555,4.04866612 223.415886,3.89833429 223.661887,3.707 C223.907889,3.51566571 224.249552,3.42 224.686887,3.42 C225.17889,3.6933347 225.53422,3.92566571 225.752887,4.117 C225.971555,4.30833429 226.080887,4.5406653 226.080887,4.814 C226.080887,5.0873347 225.998888,5.41533142 225.834887,5.798 C225.670887,6.18066858 225.479555,6.67266366 225.260887,7.274 C225.151554,7.43800082 224.987555,8.12132732 224.768887,9.324 C224.55022,10.5266727 224.317889,12.0436575 224.071887,13.875 C223.825886,15.7063425 223.566222,17.783655 223.292887,20.107 C223.019553,22.430345 222.800888,24.7673216 222.636887,27.118 C224.440896,27.118 226.162879,27.1316665 227.802887,27.159 C229.442896,27.1863335 230.891548,27.2546661 232.148887,27.364 L236.166887,27.938 Z M260.038,19.082 C260.475336,19.5193355 260.653,19.8746653 260.571,20.148 C260.489,20.4213347 260.311335,20.5306669 260.038,20.476 C259.32733,20.476 258.548338,20.5443327 257.701,20.681 C256.853662,20.8176673 255.951671,20.9269996 254.995,21.009 C254.038329,21.0910004 253.040672,21.1046669 252.002,21.05 C250.963328,20.9953331 249.924672,20.8040016 248.886,20.476 C248.448664,20.0386645 248.462331,19.6423351 248.927,19.287 C249.391669,18.9316649 249.760665,18.3986702 250.034,17.688 C250.198001,17.1959975 250.430332,16.8543343 250.731,16.663 C251.031668,16.4716657 251.345998,16.3486669 251.674,16.294 C252.275336,16.294 253.026995,16.4169988 253.929,16.663 C254.831005,16.9090012 255.582664,17.0593331 256.184,17.114 C257.113338,17.2233339 257.878664,17.3736657 258.48,17.565 C259.081336,17.7563343 259.600664,18.2619959 260.038,19.082 Z M258.316,30.234 C258.644002,31.4913396 258.903666,32.6393281 259.095,33.678 C259.286334,34.7166719 259.423,35.7143286 259.505,36.671 C259.587,37.6276714 259.641667,38.5979951 259.669,39.582 C259.696333,40.5660049 259.71,41.6319943 259.71,42.78 C259.71,42.9986678 259.587001,43.2309988 259.341,43.477 C259.094999,43.7230012 258.917334,43.9826653 258.808,44.256 C258.589332,44.7480025 258.411667,45.0486661 258.275,45.158 C258.138333,45.2673339 257.906002,45.4039992 257.578,45.568 C256.812663,45.8960016 256.129336,46.3606637 255.528,46.962 C254.81733,45.9233281 254.339001,44.7206735 254.093,43.354 C253.846999,41.9873265 253.683,40.5660074 253.601,39.09 C253.519,37.6139926 253.437,36.1243409 253.355,34.621 C253.273,33.1176592 253.068002,31.6553404 252.74,30.234 C252.575999,29.4686628 252.630665,28.9493347 252.904,28.676 C253.177335,28.4026653 253.477998,28.2113339 253.806,28.102 C254.188669,27.9926661 254.612331,28.0746653 255.077,28.348 C255.541669,28.6213347 255.992664,28.8946653 256.43,29.168 C256.812669,29.3866678 257.181665,29.5096665 257.537,29.537 C257.892335,29.5643335 258.151999,29.7966645 258.316,30.234 Z M282.105113,34.908 C283.034451,33.978662 283.977441,32.9810053 284.934113,31.915 C285.890784,30.8489947 286.888441,29.8240049 287.927113,28.84 C288.965784,27.8559951 290.031774,26.9676706 291.125113,26.175 C292.218451,25.3823294 293.36644,24.7400025 294.569113,24.248 C294.842447,24.1386661 295.102111,24.1113331 295.348113,24.166 C295.594114,24.2206669 295.853778,24.1933339 296.127113,24.084 L297.275113,24.084 C297.603114,24.084 297.903778,24.1933322 298.177113,24.412 C298.94245,24.9040025 299.557444,25.6009955 300.022113,26.503 C300.486782,27.4050045 300.883111,28.4026612 301.211113,29.496 C301.42978,30.0973363 301.552779,30.6713306 301.580113,31.218 C301.607446,31.7646694 301.757778,32.3933298 302.031113,33.104 C302.359114,34.1426719 302.728111,35.1949947 303.138113,36.261 C303.548115,37.3270053 303.698446,38.3519951 303.589113,39.336 C303.534446,39.6093347 303.452446,39.8416657 303.343113,40.033 C303.233779,40.2243343 303.097113,40.4566653 302.933113,40.73 C302.823779,40.9486678 302.632447,41.2219984 302.359113,41.55 C302.085778,41.8780016 301.812447,42.1239992 301.539113,42.288 C301.265778,42.5066678 301.088113,42.6843326 301.006113,42.821 C300.924112,42.9576674 300.664448,43.1079992 300.227113,43.272 C299.516442,42.2333281 298.969781,41.1126727 298.587113,39.91 C298.204444,38.7073273 297.876447,37.4500066 297.603113,36.138 C297.329778,34.8259934 297.08378,33.4866735 296.865113,32.12 C296.646445,30.7533265 296.373114,29.3593404 296.045113,27.938 C295.935779,27.5553314 295.594115,27.3366669 295.020113,27.282 C294.44611,27.2273331 293.790116,27.4049979 293.052113,27.815 C292.314109,28.2250021 291.535117,28.867329 290.715113,29.742 C289.895108,30.616671 289.157116,31.7373265 288.501113,33.104 C288.063777,34.0880049 287.653781,35.1129947 287.271113,36.179 C286.888444,37.2450053 286.464782,38.3109947 286.000113,39.377 C285.535444,40.4430053 284.988782,41.4816616 284.360113,42.493 C283.731443,43.5043384 282.979784,44.4199959 282.105113,45.24 C281.831778,45.5133347 281.640446,45.5406678 281.531113,45.322 C281.421779,45.1033322 281.148448,44.9120008 280.711113,44.748 C280.383111,44.6386661 280.205446,44.5293339 280.178113,44.42 C280.150779,44.3106661 280.055113,43.9826694 279.891113,43.436 C279.563111,42.2879943 279.221448,40.9760074 278.866113,39.5 C278.510777,38.0239926 278.128115,36.4660082 277.718113,34.826 C277.308111,33.1859918 276.884448,31.5323417 276.447113,29.865 C276.009777,28.1976583 275.572448,26.6260074 275.135113,25.15 L274.643113,23.674 C274.752446,23.4553322 274.957444,23.2640008 275.258113,23.1 C275.558781,22.9359992 275.873111,22.7993339 276.201113,22.69 C276.529114,22.5806661 276.884444,22.6079992 277.267113,22.772 C277.649781,22.9360008 277.950445,23.018 278.169113,23.018 C278.770449,23.018 279.303444,23.4006628 279.768113,24.166 C280.232782,24.9313372 280.629111,25.9016608 280.957113,27.077 C281.285114,28.2523392 281.544778,29.536993 281.736113,30.931 C281.927447,32.325007 282.050446,33.6506604 282.105113,34.908 Z M332.626225,19.082 C333.118228,20.3940066 333.719555,22.3346538 334.430225,24.904 C335.140895,27.4733462 335.824222,30.2613183 336.480225,33.268 C337.136228,36.2746817 337.710223,39.3086514 338.202225,42.37 C338.694228,45.4313486 338.940225,48.1099885 338.940225,50.406 C338.940225,52.210009 338.76256,54.0003244 338.407225,55.777 C338.05189,57.5536756 337.054233,59.2619918 335.414225,60.902 C334.539554,61.7220041 333.487231,62.7196608 332.257225,63.895 C331.027219,65.0703392 329.701566,66.1499951 328.280225,67.134 C327.624222,67.5713355 326.954562,67.9813314 326.271225,68.364 C325.587888,68.7466686 324.918228,69.0473322 324.262225,69.266 C323.98889,68.6099967 323.920558,68.1863343 324.057225,67.995 C324.193893,67.8036657 324.344224,67.4346694 324.508225,66.888 C324.672226,66.3959975 324.795225,65.712671 324.877225,64.838 C324.959226,63.963329 325.21889,63.3346686 325.656225,62.952 C326.202895,62.4599975 326.940887,61.8313372 327.870225,61.066 C328.799563,60.3006628 329.701554,59.4943376 330.576225,58.647 C331.450896,57.7996624 332.216222,56.9660041 332.872225,56.146 C333.528228,55.3259959 333.910891,54.5880033 334.020225,53.932 C334.129559,52.9479951 334.184225,51.8683392 334.184225,50.693 C334.184225,49.5176608 334.115893,48.3150061 333.979225,47.085 C333.842558,45.8549938 333.664893,44.6250061 333.446225,43.395 C333.227557,42.1649939 332.954227,41.0306719 332.626225,39.992 L332.462225,39.5 C331.806222,40.7026727 331.109229,41.6729963 330.371225,42.411 C329.633221,43.1490037 328.799563,43.7366645 327.870225,44.174 C327.43289,44.3926678 326.995561,44.5429996 326.558225,44.625 C326.12089,44.7070004 325.683561,44.8026661 325.246225,44.912 C324.80889,45.0213339 324.371561,45.1716657 323.934225,45.363 C323.49689,45.5543343 323.114227,45.65 322.786225,45.65 C322.075555,45.5953331 321.378562,45.2946694 320.695225,44.748 C320.011888,44.2013306 319.615559,43.5726702 319.506225,42.862 C319.451558,42.4793314 319.342226,42.0830021 319.178225,41.673 C319.014224,41.2629979 318.904892,40.8393355 318.850225,40.402 C318.740891,38.8166587 318.713558,37.0673429 318.768225,35.154 C318.822892,33.2406571 319.000557,31.3136764 319.301225,29.373 C319.601893,27.4323236 320.052889,25.5736755 320.654225,23.797 C321.255562,22.0203245 322.020887,20.4760066 322.950225,19.164 C323.332894,18.7266645 323.74289,18.303002 324.180225,17.893 C324.617561,17.4829979 325.164222,17.278 325.820225,17.278 C326.257561,17.278 326.65389,17.1140016 327.009225,16.786 C327.36456,16.4579984 327.76089,16.3213331 328.198225,16.376 C329.127563,16.4853339 329.974888,16.7176649 330.740225,17.073 C331.505562,17.4283351 332.134223,18.0979951 332.626225,19.082 Z M329.838225,25.56 C329.728891,24.7946628 329.592226,24.0020041 329.428225,23.182 C329.264224,22.3619959 329.04556,21.9246669 328.772225,21.87 C328.553557,21.8153331 328.348559,21.8289996 328.157225,21.911 C327.965891,21.9930004 327.815559,22.0613331 327.706225,22.116 C326.995555,22.3893347 326.353228,23.222993 325.779225,24.617 C325.205222,26.011007 324.713227,27.5689914 324.303225,29.291 C323.893223,31.0130086 323.578893,32.6803253 323.360225,34.293 C323.141557,35.9056747 323.086891,37.0399967 323.196225,37.696 C323.305559,38.5160041 323.524224,39.2949963 323.852225,40.033 C324.180227,40.7710037 324.699555,41.2219992 325.410225,41.386 C325.628893,41.4406669 325.984223,41.3723343 326.476225,41.181 C326.968228,40.9896657 327.487556,40.7163351 328.034225,40.361 C328.580895,40.0056649 329.127556,39.623002 329.674225,39.213 C330.220895,38.8029979 330.658224,38.4340016 330.986225,38.106 C331.150226,37.9419992 331.218559,37.4363376 331.191225,36.589 C331.163892,35.7416624 331.081893,34.7166727 330.945225,33.514 C330.808558,32.3113273 330.644559,30.9993404 330.453225,29.578 C330.261891,28.1566596 330.056893,26.8173396 329.838225,25.56 Z M359.777338,60.738 C359.777338,61.0660016 359.914003,61.4213314 360.187338,61.804 C360.460672,62.1866686 360.679337,62.5966645 360.843338,63.034 C361.007339,63.4713355 361.048338,63.9496641 360.966338,64.469 C360.884337,64.9883359 360.488008,65.6033298 359.777338,66.314 C359.613337,66.5873347 359.408339,66.7513331 359.162338,66.806 C358.916337,66.8606669 358.738672,67.0246653 358.629338,67.298 C358.465337,67.7900025 358.383338,68.3913298 358.383338,69.102 C358.055336,68.7739984 357.590674,68.4323351 356.989338,68.077 C356.388001,67.7216649 355.800341,67.3800016 355.226338,67.052 C354.652335,66.7239984 354.16034,66.3823351 353.750338,66.027 C353.340336,65.6716649 353.190004,65.3026686 353.299338,64.92 C353.408672,64.5919984 353.436005,64.2776682 353.381338,63.977 C353.326671,63.6763318 353.354004,63.3893347 353.463338,63.116 C353.95534,62.1319951 354.529335,61.3256698 355.185338,60.697 C355.841341,60.0683302 356.442668,59.6173347 356.989338,59.344 C357.372006,59.344 357.67267,59.3986661 357.891338,59.508 C358.110006,59.6173339 358.356003,59.7266661 358.629338,59.836 C358.902672,59.9453339 359.162337,60.0409996 359.408338,60.123 C359.654339,60.2050004 359.777338,60.4099984 359.777338,60.738 Z M397.17845,26.052 C397.342451,26.3253347 397.410784,26.5849988 397.38345,26.831 C397.356117,27.0770012 397.315117,27.2819992 397.26045,27.446 C396.823115,27.9380025 396.467785,28.2659992 396.19445,28.43 C395.921116,28.5940008 395.456454,28.8399984 394.80045,29.168 C394.63645,29.2773339 394.486118,29.3866661 394.34945,29.496 C394.212783,29.6053339 394.062451,29.66 393.89845,29.66 C393.625116,29.66 393.201453,29.4413355 392.62745,29.004 C392.053448,28.5666645 391.438454,28.1293355 390.78245,27.692 C390.126447,27.2546645 389.429454,26.9266678 388.69145,26.708 C387.953447,26.4893322 387.283787,26.5713314 386.68245,26.954 C386.081114,27.7740041 385.50712,28.8263269 384.96045,30.111 C384.413781,31.3956731 383.990119,32.7486596 383.68945,34.17 C383.388782,35.5913404 383.293116,37.0399926 383.40245,38.516 C383.511784,39.9920074 383.949113,41.3586604 384.71445,42.616 C387.885133,42.9440016 390.700438,42.411007 393.16045,41.017 C395.620463,39.622993 397.889107,37.8873437 399.96645,35.81 C399.96645,36.1926686 399.870785,36.5343318 399.67945,36.835 C399.488116,37.1356682 399.310451,37.4499984 399.14645,37.778 C398.927783,38.2700025 398.695452,38.748331 398.44945,39.213 C398.203449,39.677669 397.861786,40.1286645 397.42445,40.566 C396.659113,41.3860041 395.798122,42.1786628 394.84145,42.944 C393.884779,43.7093372 392.873456,44.3789971 391.80745,44.953 C390.741445,45.5270029 389.648123,45.9643318 388.52745,46.265 C387.406778,46.5656682 386.299789,46.6613339 385.20645,46.552 C384.605114,46.4973331 384.181452,46.3470012 383.93545,46.101 C383.689449,45.8549988 383.265787,45.5953347 382.66445,45.322 C382.336449,45.1033322 381.912786,44.9120008 381.39345,44.748 C380.874114,44.5839992 380.477785,44.3653347 380.20445,44.092 C379.657781,43.4359967 379.247785,42.643338 378.97445,41.714 C378.591782,40.5113273 378.40045,39.1993404 378.40045,37.778 C378.40045,36.3566596 378.496116,34.97634 378.68745,33.637 C378.878785,32.29766 379.152115,31.0813388 379.50745,29.988 C379.862785,28.8946612 380.177116,28.0473363 380.45045,27.446 C380.778452,26.7353298 381.270447,26.1203359 381.92645,25.601 C382.582454,25.0816641 383.30678,24.6033355 384.09945,24.166 C384.892121,23.7286645 385.698446,23.3186686 386.51845,22.936 C387.338454,22.5533314 388.10378,22.1980016 388.81445,21.87 C391.602464,21.87 394.390436,23.2639861 397.17845,26.052 Z M424.165563,22.362 L422.771563,23.756 C423.208898,23.7013331 423.878558,23.5783343 424.780563,23.387 C425.682567,23.1956657 426.570892,23.1 427.445563,23.1 C428.101566,23.2093339 428.648227,23.4279984 429.085563,23.756 C429.522898,24.0840016 429.796229,24.712662 429.905563,25.642 C430.124231,26.9540066 430.465894,28.27966 430.930563,29.619 C431.395232,30.95834 431.750562,32.2839934 431.996563,33.596 C432.242564,34.9080066 432.228898,36.1516608 431.955563,37.327 C431.682228,38.5023392 430.944236,39.554662 429.741563,40.484 C428.484223,42.3973429 427.103904,43.9963269 425.600563,45.281 C424.097222,46.5656731 422.525571,47.3173322 420.885563,47.536 C419.792224,47.7000008 418.58957,47.549669 417.277563,47.085 C415.965556,46.620331 415.008899,45.8140057 414.407563,44.666 C414.243562,44.7753339 414.106897,44.7890004 413.997563,44.707 C413.888229,44.6249996 413.778897,44.5293339 413.669563,44.42 C413.560229,44.3106661 413.464563,44.2833331 413.382563,44.338 C413.300563,44.3926669 413.23223,44.3653339 413.177563,44.256 C413.122896,44.0919992 413.095563,43.8733347 413.095563,43.6 L413.095563,43.272 C413.15023,41.3586571 413.327895,39.4316764 413.628563,37.491 C413.929231,35.5503236 414.393893,33.6643425 415.022563,31.833 C415.651233,30.0016575 416.471225,28.2796747 417.482563,26.667 C418.493901,25.0543253 419.792222,23.6193396 421.377563,22.362 C421.924232,22.0339984 422.52556,21.9246661 423.181563,22.034 L423.591563,22.034 C423.755564,22.034 423.946895,22.1433322 424.165563,22.362 Z M421.377563,27.938 C421.049561,27.8833331 420.85823,27.7740008 420.803563,27.61 C420.748896,27.4459992 420.762563,27.2410012 420.844563,26.995 C420.926563,26.7489988 421.035896,26.4620016 421.172563,26.134 C421.30923,25.8059984 421.377563,25.4780016 421.377563,25.15 C420.229557,26.1886719 419.341233,27.4459926 418.712563,28.922 C418.083893,30.3980074 417.632898,31.9149922 417.359563,33.473 C417.086228,35.0310078 416.96323,36.5479926 416.990563,38.024 C417.017896,39.5000074 417.086229,40.7846612 417.195563,41.878 C417.304897,42.807338 417.496228,43.5589971 417.769563,44.133 C418.042898,44.7070029 418.452894,45.0486661 418.999563,45.158 C419.600899,45.3220008 420.393558,45.1580025 421.377563,44.666 C422.798903,43.9553298 423.946892,42.9713396 424.821563,41.714 C425.696234,40.4566604 426.406894,39.1173404 426.953563,37.696 C427.172231,36.9306628 427.349896,36.0150053 427.486563,34.949 C427.62323,33.8829947 427.582231,32.885338 427.363563,31.956 C427.090228,30.6986604 426.393235,29.7830029 425.272563,29.209 C424.151891,28.6349971 422.85357,28.2113347 421.377563,27.938 Z M448.856676,20.968 C449.184677,22.3893404 449.321343,23.8653257 449.266676,25.396 C449.212009,26.9266743 449.143676,28.4709922 449.061676,30.029 C448.979675,31.5870078 448.979675,33.1449922 449.061676,34.703 C449.143676,36.2610078 449.540005,37.7233265 450.250676,39.09 C451.508015,35.9739844 453.229998,33.1450127 455.416676,30.603 C457.603353,28.0609873 459.926663,25.7786768 462.386676,23.756 C462.714677,23.4826653 463.05634,23.3050004 463.411676,23.223 C463.767011,23.1409996 464.108674,23.0453339 464.436676,22.936 C464.71001,22.8266661 464.969674,22.7310004 465.215676,22.649 C465.461677,22.5669996 465.80334,22.6353322 466.240676,22.854 C467.334014,23.4553363 467.962675,24.6033249 468.126676,26.298 C468.290676,27.9926751 468.372676,30.3979844 468.372676,33.514 C469.19268,32.6939959 470.026338,31.7783384 470.873676,30.767 C471.721013,29.7556616 472.582005,28.785338 473.456676,27.856 C474.331347,26.926662 475.233338,26.1066702 476.162676,25.396 C477.092014,24.6853298 478.076004,24.1660016 479.114676,23.838 C479.442677,23.7286661 479.78434,23.7149996 480.139676,23.797 C480.495011,23.8790004 480.836674,23.92 481.164676,23.92 C481.383343,23.92 481.574675,23.8790004 481.738676,23.797 C481.902676,23.7149996 482.094008,23.7013331 482.312676,23.756 C482.640677,23.8106669 482.927674,23.9746653 483.173676,24.248 C483.419677,24.5213347 483.597342,24.8219984 483.706676,25.15 C483.925343,25.9700041 484.226007,27.1043261 484.608676,28.553 C484.991344,30.0016739 485.333007,31.4776591 485.633676,32.981 C485.934344,34.4843408 486.166675,35.8919934 486.330676,37.204 C486.494676,38.5160066 486.494676,39.4453306 486.330676,39.992 C486.221342,40.4840025 486.098343,40.8119992 485.961676,40.976 C485.825008,41.1400008 485.538011,41.4406645 485.100676,41.878 C484.991342,41.878 484.868343,41.9599992 484.731676,42.124 C484.595008,42.2880008 484.444676,42.4519992 484.280676,42.616 C484.062008,42.8346678 483.870676,43.0533322 483.706676,43.272 C482.996005,42.2333281 482.449344,41.1126727 482.066676,39.91 C481.684007,38.7073273 481.35601,37.4500066 481.082676,36.138 C480.809341,34.8259934 480.563343,33.4866735 480.344676,32.12 C480.126008,30.7533265 479.852677,29.3593404 479.524676,27.938 C477.939334,28.7580041 476.69568,29.7009947 475.793676,30.767 C474.891671,31.8330053 474.167345,32.9536608 473.620676,34.129 C473.074006,35.3043392 472.582011,36.4933273 472.144676,37.696 C471.70734,38.8986727 471.160679,40.0466612 470.504676,41.14 C469.903339,42.069338 469.302012,42.8073306 468.700676,43.354 C468.099339,43.9006694 467.607344,44.1466669 467.224676,44.092 C466.896674,44.0373331 466.650676,43.7366694 466.486676,43.19 C466.322675,42.6433306 466.10401,41.8233388 465.830676,40.73 C465.284006,38.4886555 464.778345,36.0833462 464.313676,33.514 C463.849007,30.9446538 463.343345,28.6213437 462.796676,26.544 C461.758004,26.8720016 460.733014,27.4596624 459.721676,28.307 C458.710337,29.1543376 457.767347,30.1383277 456.892676,31.259 C456.018005,32.3796723 455.239012,33.6233265 454.555676,34.99 C453.872339,36.3566735 453.366677,37.7233265 453.038676,39.09 C453.749346,40.5113404 453.776679,41.686662 453.120676,42.616 C452.847341,43.0533355 452.464678,43.4223318 451.972676,43.723 C451.480673,44.0236682 450.906679,44.3379984 450.250676,44.666 C449.868007,45.0486686 449.458011,45.1853339 449.020676,45.076 C448.58334,44.9666661 448.22801,44.707002 447.954676,44.297 C447.681341,43.8869979 447.517343,43.5453347 447.462676,43.272 C447.134674,41.5226579 446.806677,39.7050094 446.478676,37.819 C446.150674,35.9329906 445.945676,34.0333429 445.863676,32.12 C445.781675,30.2066571 445.850008,28.3070094 446.068676,26.421 C446.287343,24.5349906 446.752005,22.7173421 447.462676,20.968 C447.572009,20.6399984 447.681342,20.476 447.790676,20.476 C447.900009,20.476 448.009342,20.5169996 448.118676,20.599 C448.228009,20.6810004 448.337342,20.7493331 448.446676,20.804 C448.556009,20.8586669 448.624342,20.886 448.651676,20.886 C448.679009,20.886 448.747342,20.9133331 448.856676,20.968 Z"
        id="Codeciting.com"
        fill="currentColor">
    </path>
  </g>
</svg>
